General

Complete name : D:\Rajapattai (Tamil 2011) 1CD TC Rip X264 TDM -=MTR=-(Tamil 2011) 1CD TC Rip X264 TDM -=MTR=-
Format : Matroska
Format version : Version 2
File size : 647 MiB
Duration : 1h 58mn
Overall bit rate : 766 Kbps
Movie name : Rajapattai (Tamil 2011) 1CD TC Rip X264 TDM -MTR-
Encoded date : UTC 2011-12-25 07:31:48
Writing application : mkvmerge v4.6.0 ('Still Crazy After All These Years') built on Mar 10 2011 02:50:32
Writing library : libebml v1.2.0 + libmatroska v1.1.0

Video
ID : 1
Format : AVC
Format/Info : Advanced Video Codec
Format profile : High@L4.0
Format settings, CABAC : Yes
Format settings, ReFrames : 3 frames
Codec ID : V_MPEG4/ISO/AVC
Duration : 1h 58mn
Bit rate mode : Variable
Bit rate : 541 Kbps
Maximum bit rate : 25.0 Mbps
Width : 640 pixels
Height : 272 pixels
Display aspect ratio : 2.35:1
Frame rate : 29.970 fps
Color space : YUV
Chroma subsampling : 4:2:0
Bit depth : 8 bits
Scan type : Progressive
Bits/(Pixel*Frame) : 0.104
Stream size : 445 MiB (69%)
Writing library : x264 core 114 r1924 08d04a4
Encoding settings : cabac=1 / ref=3 / deblock=1:0:0 / analyse=0x3:0x133 / me=umh / subme=7 / psy=1 / psy_rd=1.00:0.00 / mixed_ref=1 / me_range=16 / chroma_me=1 / trellis=1 / 8x8dct=1 / cqm=0 / deadzone=21,11 / fast_pskip=1 / chroma_qp_offset=-2 / threads=6 / sliced_threads=0 / nr=0 / decimate=1 / interlaced=0 / constrained_intra=0 / bframes=3 / b_pyramid=0 / b_adapt=1 / b_bias=0 / direct=1 / weightb=1 / open_gop=0 / weightp=2 / keyint=300 / keyint_min=30 / scenecut=40 / intra_refresh=0 / rc_lookahead=40 / rc=2pass / mbtree=1 / bitrate=541 / ratetol=1.0 / qcomp=0.60 / qpmin=0 / qpmax=69 / qpstep=4 / cplxblur=20.0 / qblur=0.5 / vbv_maxrate=25000 / vbv_bufsize=25000 / nal_hrd=vbr / ip_ratio=1.40 / aq=1:1.00

Audio
ID : 2
Format : MPEG Audio
Format version : Version 1
Format profile : Layer 2
Codec ID : A_MPEG/L2
Codec ID/Hint : MP2
Duration : 1h 58mn
Bit rate mode : Constant
Bit rate : 224 Kbps
Channel(s) : 2 channels
Sampling rate : 48.0 KHz
Compression mode : Lossy
Stream size : 189 MiB (29%)


Quote:


Rajapattai (Tamil: à®°à®¾à®œà®ªà®¾à®Ÿà¯à®Ÿà¯ˆ; English: King's path) is a 2011 Tamil action-masala film directed by Suseenthiran based on a story by Seenu Vasan.[4] Featuring Vikram and Deeksha Seth in the lead roles and music composed by Yuvan Shankar Raja, the film is being produced by Prasad V. Potluri's newly-launched PVP Cinema on a budget of 39 crores.[3] The story revolves around the issue of land grabbing and how the protagonist becomes involved in it.[5] Rajapattai released on 23 December 2011 to mixed critical response. The film is also being dubbed into Telugu and will release as Veedinthe one week later.


Cast

Vikram as Anal Murugan
Deeksha Seth as Dharshini
K. Vishwanath as Dakshinamurthy
Pradeep Rawat as Abdul Kadhir (Vaappa)
Avinash as Chidambaram
Sana as Ranganayaki (Akka)
Thambi Ramaiah
Mayilsamy
Aruldass
Shriya Saran in a special appearance
Reemma Sen in a special appearance
Saloni Aswani in a special appearance


Enjoy

 
http://www.shotpix.com/images/85947470767622004042.png
 
http://www.shotpix.com/images/44632208723596170879.png
 
http://www.shotpix.com/images/51636838058935487818.png
 
http://www.shotpix.com/images/64460593435903051177.png
 
http://www.shotpix.com/images/76986932232074976468.png




Source : Untouched TC

Ripper : TheDarkMaster -TDM-
